<?xml version="1.0" encoding="UTF-8"?>
<svg
  xmlns="http://www.w3.org/2000/svg"
  width="64"
  height="64"
  viewBox="0 0 64 64"
  aria-hidden="true"
>
  <!-- Gold circular background -->
  <circle cx="32" cy="32" r="32" fill="#D4AF37" />

  <!-- Centered icon -->
  <g transform="translate(32 32) scale(1.4) translate(-12 -12)">
    <path
      fill="#ffffff"
      d="M12 2L2 7v10c0 5.55 3.84 10.74 9 12 5.16-1.26 9-6.45 9-12V7l-10-5zm0 18c-4.41 0-8-3.59-8-8s3.59-8 8-8 8 3.59 8 8-3.59 8-8 8zm-1-13h2v6h-2zm0 8h2v2h-2z"
    />
  </g>
</svg>
